<?xml version="1.0" encoding="UTF-8" standalone="no"?>
<!-- Created with Inkscape (http://www.inkscape.org/) -->

<svg
   width="128mm"
   height="128mm"
   viewBox="0 0 128 128"
   version="1.1"
   id="svg1"
   sodipodi:docname="mugvim.svg"
   xml:space="preserve"
   inkscape:version="1.4.2 (ebf0e940d0, 2025-05-08)"
   xmlns:inkscape="http://www.inkscape.org/namespaces/inkscape"
   xmlns:sodipodi="http://sodipodi.sourceforge.net/DTD/sodipodi-0.dtd"
   xmlns="http://www.w3.org/2000/svg"
   xmlns:svg="http://www.w3.org/2000/svg"><sodipodi:namedview
     id="namedview1"
     pagecolor="#ffffff"
     bordercolor="#000000"
     borderopacity="0.25"
     inkscape:showpageshadow="2"
     inkscape:pageopacity="0.0"
     inkscape:pagecheckerboard="true"
     inkscape:deskcolor="#d1d1d1"
     inkscape:document-units="mm"
     inkscape:zoom="1.4979692"
     inkscape:cx="140.85737"
     inkscape:cy="148.53443"
     inkscape:window-width="2560"
     inkscape:window-height="1398"
     inkscape:window-x="0"
     inkscape:window-y="0"
     inkscape:window-maximized="1"
     inkscape:current-layer="svg1"><inkscape:page
       x="0"
       y="0"
       width="128"
       height="128"
       id="page2"
       margin="0"
       bleed="0" /><inkscape:page
       x="138"
       y="0"
       width="28.222223"
       height="28.222223"
       id="page3"
       margin="0"
       bleed="0" /></sodipodi:namedview><defs
     id="defs1" /><path
     style="display:inline;fill:#ffcc00;stroke-width:80.892"
     d="m -280.83257,29.738747 -47.20436,17.937656 -83.07968,69.390407 -21.714,16.52153 -10.85701,-5.66452 -10.857,5.19247 -8.96883,33.04306 5.19248,11.32904 -8.49678,11.32905 -0.47205,19.35379 -21.24196,18.88174 -10.857,53.81297 4.24839,55.70115 27.37853,51.45275 38.23553,42.95597 16.04948,8.96882 33.98714,-1.41613 61.36567,16.04949 48.62049,-0.94409 67.03019,-36.8194 10.85701,-17.93766 36.8194,-3.3043 9.44087,-5.66453 11.80109,-21.24196 10.38496,1.41613 14.63335,-21.714 -17.46561,6.13656 -12.27314,-2.36022 13.21722,-37.29144 14.16131,-20.76992 36.34736,42.01188 8.49678,-10.857 -27.37853,-49.56458 20.29788,-44.3721 10.857,-50.50866 -32.09896,-67.97428 -49.09254,-38.707575 -62.30975,-20.769918 -50.98071,-23.130137 z"
     id="path7"
     transform="matrix(0.26458333,0,0,0.26458333,138,0)" /><g
     id="g1"
     inkscape:groupmode="layer"
     inkscape:label="1"
     transform="matrix(0.26458333,0,0,0.26458333,138,0)"
     style="display:inline"><g
       id="g3"
       transform="matrix(4.3065543,0,0,4.3065543,-507.83356,23.657458)"><path
         id="path1"
         d="M 335,780 C 313.09,769.043 259.5,726.082 216.5,685 156.5,627.676 134.938,612.512 125,620.664 102.934,638.762 66.3672,595 73.4727,559 76.4336,544 74.5898,528.215 69.5,525 64.2227,521.668 60,511 60,501 60,491.527 51,474.781 41,465.652 12.4883,439.617 -3.51172,368 3.76953,299 11.1875,228.703 18.6211,213 79.0547,140 137,70 137,70 185,70 c 22,0 58,-6.5234 80,-14.5 21.984,-7.9687 69.5,-14.7266 105.5,-15 56,-0.4258 72.172,3.7344 111.5,28.6992 48,30.4688 64.434,48.1488 54,58.0858 -3.273,3.117 -16,-3.351 -28,-14.234 C 448.324,58.9375 356,44.9531 264,76.0938 238,84.8906 203.148,89.9297 186,87.3672 157,83.0352 130,97.3203 130,117 c 0,4.934 -14,22.328 -31,38.508 C 46.5742,205.418 25.8281,256 25.3906,335 25.1563,377 31,417 40,435 c 15.5,31 36.8359,33.012 31.832,3 -4.0664,-24.41 40.824,-23 63.598,2 20.746,22.773 8.57,25.688 -19.43,4.648 C 90,425.113 74.5508,437.602 95.7695,461 110.281,477 110.633,480 98,480 c -25,0 -31.668,30.781 -8,36.938 23,5.98 25.324,13.738 9,30.062 -13.793,13.793 -7,55.359 10,61.195 10.566,3.625 12.406,-1.695 7.5,-21.695 -4.168,-17 -2.555,-26.5 4.5,-26.5 5.867,0 20.102,-10.5 30.5,-22.5 L 171,515 155,547.5 c -15.262,31 -14.961,33.883 6.5,62.5 12.602,16.801 44.5,48.531 72.5,72.117 124,104.453 173.09,118.203 259,72.528 29,-15.418 58.633,-32.954 67,-39.645 8.25,-6.602 33,-14.926 55,-18.5 22,-3.574 41.574,-11 43.5,-16.5 2,-5.715 9.5,-10 17.5,-10 7.465,0 14,-7 14,-15 0,-8 3.734,-15 8,-15 4.445,0 22.445,-24 40.5,-54 27.684,-46 31.5,-59.629 25.75,-92 -6.574,-37 -33.082,-114 -39.25,-114 -1.633,0 -29,13.691 -60,30.02 C 598,445.301 540.91,449.715 522.91,421 511.852,403.355 513,402.754 539,412.578 c 36.906,13.942 96,-4.43 146,-45.387 49.953,-40.918 38,-44.375 -23,-6.652 -62,38.344 -118.762,47.93 -147,24.824 -19.555,-16 -19.5,-16.261 2.5,-11.863 12,2.398 22.5,0.301 22.5,-4.5 0,-5.398 -4,-9 -10,-9 -5.625,0 -10,-7 -10,-16 0,-12 3.125,-13.5 12.5,-6 6.875,5.5 30.5,12.16 52.5,14.801 C 637.578,359.109 694.75,326 734.879,266 c 33.445,-50 37.473,-52.371 54.351,-32 8.125,9.809 2.297,27 -23.73,70 l -34.5,57 21.5,41.5 c 12.793,24.695 23.121,66 25.5,102 3.758,56.832 1.363,64.5 -39.5,126.5 -27.023,41 -48.805,64.105 -57.5,61 -8,-2.855 -11.172,-0.285 -7.398,6 C 682.441,712.738 661,724.586 630,722.094 615.816,720.949 569,738.141 527,759.91 438,806.043 395.895,810.449 335,780 Z M 758,274.5 c -3.332,-3.055 -8.891,2.5 -12.5,12.5 -5.055,14 -3.723,15.223 6,5.5 7,-7 9.859,-14.922 6.5,-18"
         style="fill:#000000;fill-opacity:1;fill-rule:nonzero;stroke:none"
         transform="matrix(0.13333333,0,0,-0.13333333,0,106.66667)" /><path
         id="path2"
         d="m 400,616 c 0,-7.465 7,-16.566 15,-19.5 8.332,-3.055 15,-17.5 15,-32.5 0,-25 1.297,-25.852 17.5,-11.5 15.656,13.867 19.5,14.055 36.5,1.762 23,-16.633 46,-18.762 46,-4.262 0,11.332 -103,80 -120,80 -5.715,0 -10,-6 -10,-14"
         style="fill:#000000;fill-opacity:1;fill-rule:nonzero;stroke:none"
         transform="matrix(0.13333333,0,0,-0.13333333,0,106.66667)" /><path
         id="path3"
         d="m 580,531 c 0,-6 4.547,-11 10,-11 5.602,0 10,-11 10,-25 0,-30 15.422,-34.066 22.766,-6 4.601,17.574 9.234,18.891 38.234,10.832 40,-11.109 39,-11.141 39,1.168 0,11.535 -33,25.051 -84,34.398 -24,4.403 -36,2.934 -36,-4.398"
         style="fill:#000000;fill-opacity:1;fill-rule:nonzero;stroke:none"
         transform="matrix(0.13333333,0,0,-0.13333333,0,106.66667)" /><path
         id="path4"
         d="M 237.52,289 C 221.609,252 192.281,236.164 168,251.461 146,265.32 110,261.309 110,245 c 0,-9.828 10,-15 29,-15 43,0 47.395,-16.949 9,-34.723 L 115,180 l 30,5.5 c 16.363,3 55,22.098 85,42.016 68,45.148 67.207,44.41 53,49.332 -6.75,2.336 -9.375,11.152 -6,20.152 3.75,10 2.063,13.563 -4.5,9.5 -5.879,-3.641 -12.48,-1 -15,6 -2.5,6.945 -11.379,-3.5 -19.98,-23.5"
         style="fill:#000000;fill-opacity:1;fill-rule:nonzero;stroke:none"
         transform="matrix(0.13333333,0,0,-0.13333333,0,106.66667)" /><path
         id="path5"
         d="m 650.5,265.5 c -8.332,-25 -15.906,-32.848 -27.5,-28.5 -11,4.125 -13.812,2.406 -9,-5.5 3.965,-6.516 20,-11.5 37,-11.5 17,0 27.398,-4.332 24,-10 -3.254,-5.422 -19.5,-10 -35.5,-10 -16,0 -29.5,-4.578 -29.5,-10 0,-6 4,-10 10,-10 5.219,0 10,-5.5 10,-11.5 0,-7.559 -12,-9.441 -35,-5.5 -20,3.43 -35,1.715 -35,-4 0,-6 -4,-7.602 -10,-4 -6,3.602 -10,2 -10,-4 0,-18.449 19,-21.871 60,-10.801 24,6.481 40,16.602 40,25.301 0,7.855 11,18.855 24,24 13,5.145 27.086,19.125 30.73,30.5 8.333,26 -0.765,37.965 -16.73,22 -22.223,-22.223 -28.285,-12 -13.645,23 7.95,19 10.758,35 6.145,35 -4.68,0 -13.668,-15.5 -20,-34.5"
         style="fill:#000000;fill-opacity:1;fill-rule:nonzero;stroke:none"
         transform="matrix(0.13333333,0,0,-0.13333333,0,106.66667)" /><path
         id="path6"
         d="m 390,217 c 0,-32 -19.738,-57 -45,-57 -14,0 -25,-4.398 -25,-10 0,-5.453 5,-10 11,-10 7.098,0 6.566,-5.5 -1.5,-15.5 -11.207,-13.898 -9.5,-14.801 16.5,-8.746 38,8.848 44,12.562 44,27.246 0,7.059 16,28.543 35,47 19,18.457 35,36.973 35,40.5 0,3.527 -16,6.043 -35,5.5 -27,-0.77 -35,-5.113 -35,-19"
         style="fill:#000000;fill-opacity:1;fill-rule:nonzero;stroke:none"
         transform="matrix(0.13333333,0,0,-0.13333333,0,106.66667)" /></g></g></svg>
